<svg viewBox="0 0 1200 627" xmlns="http://www.w3.org/2000/svg">
  <defs>
    <linearGradient id="sky" x1="0%" y1="0%" x2="0%" y2="100%">
      <stop offset="0%" style="stop-color:#FFF7ED"/>
      <stop offset="100%" style="stop-color:#FEF3C7"/>
    </linearGradient>
    <linearGradient id="shirtGrad" x1="0%" y1="0%" x2="0%" y2="100%">
      <stop offset="0%" style="stop-color:#6366f1"/>
      <stop offset="100%" style="stop-color:#4f46e5"/>
    </linearGradient>
    <linearGradient id="laptopScreen" x1="0%" y1="0%" x2="100%" y2="100%">
      <stop offset="0%" style="stop-color:#1e1b4b"/>
      <stop offset="100%" style="stop-color:#312e81"/>
    </linearGradient>
    <filter id="shadow" x="-20%" y="-20%" width="140%" height="140%">
      <feDropShadow dx="3" dy="4" stdDeviation="4" flood-color="#00000022"/>
    </filter>
    <filter id="blobShadow">
      <feDropShadow dx="0" dy="6" stdDeviation="10" flood-color="#00000018"/>
    </filter>
  </defs>

  <rect width="1200" height="627" fill="url(#sky)"/>

  <path d="M0 520 Q200 490 400 520 Q600 550 800 515 Q1000 480 1200 510 L1200 627 L0 627 Z" fill="#fde68a" opacity="0.5"/>
  <path d="M0 545 Q300 510 600 545 Q900 580 1200 545 L1200 627 L0 627 Z" fill="#fbbf24" opacity="0.35"/>

  <ellipse cx="820" cy="340" rx="320" ry="260" fill="#fb923c" opacity="0.12" filter="url(#blobShadow)"/>

  <circle cx="60" cy="60" r="12" fill="#f87171" opacity="0.5"/>
  <circle cx="120" cy="40" r="7" fill="#fbbf24" opacity="0.6"/>
  <circle cx="1140" cy="80" r="14" fill="#34d399" opacity="0.5"/>
  <circle cx="1100" cy="130" r="8" fill="#818cf8" opacity="0.6"/>
  <circle cx="80" cy="560" r="10" fill="#818cf8" opacity="0.4"/>
  <circle cx="1160" cy="540" r="9" fill="#f87171" opacity="0.4"/>
  <circle cx="200" cy="500" r="6" fill="#fbbf24" opacity="0.5"/>

  <g transform="translate(170, 130)">
    <line x1="0" y1="-14" x2="0" y2="14" stroke="#f59e0b" stroke-width="3" stroke-linecap="round"/>
    <line x1="-14" y1="0" x2="14" y2="0" stroke="#f59e0b" stroke-width="3" stroke-linecap="round"/>
    <line x1="-9" y1="-9" x2="9" y2="9" stroke="#f59e0b" stroke-width="2" stroke-linecap="round"/>
    <line x1="9" y1="-9" x2="-9" y2="9" stroke="#f59e0b" stroke-width="2" stroke-linecap="round"/>
  </g>
  <g transform="translate(1050, 200)">
    <line x1="0" y1="-10" x2="0" y2="10" stroke="#818cf8" stroke-width="2.5" stroke-linecap="round"/>
    <line x1="-10" y1="0" x2="10" y2="0" stroke="#818cf8" stroke-width="2.5" stroke-linecap="round"/>
    <line x1="-7" y1="-7" x2="7" y2="7" stroke="#818cf8" stroke-width="1.5" stroke-linecap="round"/>
    <line x1="7" y1="-7" x2="-7" y2="7" stroke="#818cf8" stroke-width="1.5" stroke-linecap="round"/>
  </g>
  <g transform="translate(400, 80)">
    <line x1="0" y1="-8" x2="0" y2="8" stroke="#34d399" stroke-width="2" stroke-linecap="round"/>
    <line x1="-8" y1="0" x2="8" y2="0" stroke="#34d399" stroke-width="2" stroke-linecap="round"/>
  </g>

  <!-- Card 1: Design -->
  <g filter="url(#shadow)" transform="translate(80, 160)">
    <rect width="130" height="110" rx="18" fill="#ffffff"/>
    <rect width="130" height="110" rx="18" fill="none" stroke="#e0e7ff" stroke-width="2"/>
    <circle cx="65" cy="48" r="26" fill="#e0e7ff"/>
    <circle cx="54" cy="38" r="7" fill="#818cf8"/>
    <circle cx="76" cy="38" r="7" fill="#f87171"/>
    <circle cx="65" cy="58" r="7" fill="#fbbf24"/>
    <text x="65" y="88" font-family="'Inter','Helvetica Neue',sans-serif" font-size="12" font-weight="700" fill="#4f46e5" text-anchor="middle">Design</text>
    <text x="65" y="102" font-family="'Inter','Helvetica Neue',sans-serif" font-size="10" fill="#94a3b8" text-anchor="middle">UI / UX</text>
  </g>

  <!-- Card 2: Code -->
  <g filter="url(#shadow)" transform="translate(60, 380)">
    <rect width="140" height="110" rx="18" fill="#ffffff"/>
    <rect width="140" height="110" rx="18" fill="none" stroke="#d1fae5" stroke-width="2"/>
    <rect x="20" y="22" width="100" height="48" rx="8" fill="#ecfdf5"/>
    <text x="70" y="52" font-family="'Courier New',monospace" font-size="18" font-weight="700" fill="#10b981" text-anchor="middle">&lt;/&gt;</text>
    <text x="70" y="88" font-family="'Inter','Helvetica Neue',sans-serif" font-size="12" font-weight="700" fill="#059669" text-anchor="middle">Engineer</text>
    <text x="70" y="102" font-family="'Inter','Helvetica Neue',sans-serif" font-size="10" fill="#94a3b8" text-anchor="middle">Build &amp; Ship</text>
  </g>

  <!-- Card 3: Growth -->
  <g filter="url(#shadow)" transform="translate(960, 130)">
    <rect width="140" height="110" rx="18" fill="#ffffff"/>
    <rect width="140" height="110" rx="18" fill="none" stroke="#fee2e2" stroke-width="2"/>
    <rect x="28" y="52" width="18" height="22" rx="4" fill="#fca5a5"/>
    <rect x="52" y="36" width="18" height="38" rx="4" fill="#f87171"/>
    <rect x="76" y="22" width="18" height="52" rx="4" fill="#ef4444"/>
    <text x="70" y="90" font-family="'Inter','Helvetica Neue',sans-serif" font-size="12" font-weight="700" fill="#ef4444" text-anchor="middle">Growth</text>
    <text x="70" y="104" font-family="'Inter','Helvetica Neue',sans-serif" font-size="10" fill="#94a3b8" text-anchor="middle">Funnels</text>
  </g>

  <!-- Card 4: Ship -->
  <g filter="url(#shadow)" transform="translate(980, 380)">
    <rect width="140" height="110" rx="18" fill="#ffffff"/>
    <rect width="140" height="110" rx="18" fill="none" stroke="#fef3c7" stroke-width="2"/>
    <text x="70" y="60" font-family="serif" font-size="36" text-anchor="middle">🚀</text>
    <text x="70" y="88" font-family="'Inter','Helvetica Neue',sans-serif" font-size="12" font-weight="700" fill="#d97706" text-anchor="middle">Ship</text>
    <text x="70" y="102" font-family="'Inter','Helvetica Neue',sans-serif" font-size="10" fill="#94a3b8" text-anchor="middle">Launch fast</text>
  </g>

  <!-- Shadow under person -->
  <ellipse cx="650" cy="530" rx="90" ry="18" fill="#00000015"/>

  <!-- Legs -->
  <rect x="610" y="450" width="34" height="75" rx="17" fill="#1e1b4b"/>
  <rect x="656" y="450" width="34" height="75" rx="17" fill="#1e1b4b"/>
  <ellipse cx="627" cy="524" rx="26" ry="12" fill="#111827"/>
  <ellipse cx="673" cy="524" rx="26" ry="12" fill="#111827"/>

  <!-- Body -->
  <rect x="585" y="310" width="130" height="155" rx="40" fill="url(#shirtGrad)"/>

  <!-- Left arm + coffee -->
  <rect x="540" y="330" width="52" height="28" rx="14" fill="#6366f1"/>
  <rect x="514" y="316" width="34" height="40" rx="8" fill="#ffffff" filter="url(#shadow)"/>
  <rect x="514" y="316" width="34" height="14" rx="7" fill="#f87171"/>
  <path d="M548 330 Q560 330 560 342 Q560 354 548 354" fill="none" stroke="#ffffff" stroke-width="4" stroke-linecap="round"/>
  <path d="M524 310 Q527 300 524 292" fill="none" stroke="#94a3b8" stroke-width="2" stroke-linecap="round"/>
  <path d="M533 308 Q536 296 533 288" fill="none" stroke="#94a3b8" stroke-width="2" stroke-linecap="round"/>

  <!-- Right arm -->
  <rect x="715" y="335" width="52" height="28" rx="14" fill="#6366f1"/>
  <circle cx="762" cy="349" r="16" fill="#fbbf24"/>
  <rect x="770" y="340" width="24" height="12" rx="6" fill="#fbbf24"/>

  <!-- Laptop -->
  <g filter="url(#shadow)">
    <rect x="780" y="290" width="160" height="110" rx="12" fill="#1e1b4b"/>
    <rect x="788" y="298" width="144" height="94" rx="8" fill="url(#laptopScreen)"/>
    <rect x="796" y="308" width="60" height="6" rx="3" fill="#818cf8" opacity="0.7"/>
    <rect x="796" y="320" width="90" height="4" rx="2" fill="#4f46e5" opacity="0.5"/>
    <rect x="796" y="330" width="75" height="4" rx="2" fill="#4f46e5" opacity="0.5"/>
    <rect x="796" y="346" width="40" height="14" rx="4" fill="#34d399" opacity="0.8"/>
    <text x="816" y="357" font-family="'Courier New',monospace" font-size="8" fill="#ffffff">ship()</text>
    <rect x="772" y="400" width="176" height="14" rx="4" fill="#334155"/>
    <rect x="810" y="414" width="100" height="6" rx="3" fill="#475569"/>
  </g>

  <!-- Neck -->
  <rect x="632" y="278" width="36" height="40" rx="18" fill="#fbbf24"/>

  <!-- Head -->
  <circle cx="650" cy="250" r="72" fill="#fbbf24" filter="url(#shadow)"/>

  <!-- Hair -->
  <path d="M588 228 Q600 170 650 168 Q700 170 712 228 Q700 200 650 198 Q600 200 588 228 Z" fill="#1e1b4b"/>
  <path d="M608 200 Q615 185 630 182" fill="none" stroke="#111827" stroke-width="3" stroke-linecap="round"/>

  <!-- Eyes -->
  <circle cx="628" cy="248" r="11" fill="#ffffff"/>
  <circle cx="672" cy="248" r="11" fill="#ffffff"/>
  <circle cx="631" cy="250" r="7" fill="#1e1b4b"/>
  <circle cx="675" cy="250" r="7" fill="#1e1b4b"/>
  <circle cx="634" cy="247" r="2.5" fill="#ffffff"/>
  <circle cx="678" cy="247" r="2.5" fill="#ffffff"/>

  <!-- Eyebrows -->
  <path d="M618 234 Q628 228 638 234" fill="none" stroke="#1e1b4b" stroke-width="3.5" stroke-linecap="round"/>
  <path d="M662 234 Q672 228 682 234" fill="none" stroke="#1e1b4b" stroke-width="3.5" stroke-linecap="round"/>

  <!-- Smile -->
  <path d="M624 270 Q650 294 676 270" fill="none" stroke="#1e1b4b" stroke-width="4" stroke-linecap="round"/>

  <!-- Cheeks -->
  <circle cx="610" cy="266" r="12" fill="#f87171" opacity="0.3"/>
  <circle cx="690" cy="266" r="12" fill="#f87171" opacity="0.3"/>

  <!-- Earbuds -->
  <circle cx="578" cy="252" r="7" fill="#818cf8"/>
  <circle cx="722" cy="252" r="7" fill="#818cf8"/>

  <!-- Text -->
  <text x="340" y="175" font-family="'Inter','Helvetica Neue',sans-serif" font-size="54" font-weight="900" fill="#1e1b4b" text-anchor="middle">The most exciting</text>
  <text x="340" y="240" font-family="'Inter','Helvetica Neue',sans-serif" font-size="54" font-weight="900" fill="#1e1b4b" text-anchor="middle">time to build. 🔥</text>

  <rect x="140" y="268" width="400" height="44" rx="22" fill="#6366f1"/>
  <text x="340" y="296" font-family="'Inter','Helvetica Neue',sans-serif" font-size="17" font-weight="700" fill="#ffffff" text-anchor="middle">One person. Every role. Real product.</text>

  <rect x="140" y="330" width="110" height="30" rx="15" fill="#fef3c7" stroke="#fbbf24" stroke-width="1.5"/>
  <text x="195" y="349" font-family="'Inter','Helvetica Neue',sans-serif" font-size="12" font-weight="600" fill="#92400e" text-anchor="middle">#BuildInPublic</text>

  <rect x="262" y="330" width="88" height="30" rx="15" fill="#ecfdf5" stroke="#34d399" stroke-width="1.5"/>
  <text x="306" y="349" font-family="'Inter','Helvetica Neue',sans-serif" font-size="12" font-weight="600" fill="#065f46" text-anchor="middle">#ProductLed</text>

  <rect x="362" y="330" width="80" height="30" rx="15" fill="#ede9fe" stroke="#818cf8" stroke-width="1.5"/>
  <text x="402" y="349" font-family="'Inter','Helvetica Neue',sans-serif" font-size="12" font-weight="600" fill="#4c1d95" text-anchor="middle">#ShipFast</text>

  <text x="340" y="420" font-family="'Inter','Helvetica Neue',sans-serif" font-size="16" fill="#64748b" text-anchor="middle">Sharing the journey — the decisions, the</text>
  <text x="340" y="442" font-family="'Inter','Helvetica Neue',sans-serif" font-size="16" fill="#64748b" text-anchor="middle">learnings, and the honest mistakes.</text>

  <text x="600" y="598" font-family="'Inter','Helvetica Neue',sans-serif" font-size="14" font-weight="600" fill="#92400e" text-anchor="middle" opacity="0.7">finpat.app</text>
</svg>
